<?xml version="1.0" encoding="utf-8"?>
<!-- Generator: Adobe Illustrator 15.0.2, SVG Export Plug-In . SVG Version: 6.00 Build 0)  -->
<!DOCTYPE svg PUBLIC "-//W3C//DTD SVG 1.1//EN" "http://www.w3.org/Graphics/SVG/1.1/DTD/svg11.dtd">
<svg version="1.1" id="Layer_1" xmlns="http://www.w3.org/2000/svg" xmlns:xlink="http://www.w3.org/1999/xlink" x="0px" y="0px"
	 width="15px" height="15px" viewBox="0 0 15 15" enable-background="new 0 0 15 15" xml:space="preserve">
<polygon points="10.064,7.1 8.683,6 8,6 8,7.306 6.758,5 6,5 6,7.34 4.782,3.5 4,3.5 4,7.658 2.792,2 2,2 2,13 2.8,13 2.8,5.842 
	4,11.5 4.8,11.5 4.8,6.16 6.018,10 6.8,10 6.8,6.694 8.042,9 8.8,9 8.8,6.966 10.117,8.283 10.8,7.899 13,7.9 13,7.1 "/>
</svg>
