<?xml version="1.0" encoding="UTF-8" standalone="no"?>
<!-- Generator: Adobe Illustrator 15.0.2, SVG Export Plug-In . SVG Version: 6.00 Build 0)  -->

<svg
   xmlns:dc="http://purl.org/dc/elements/1.1/"
   xmlns:cc="http://creativecommons.org/ns#"
   xmlns:rdf="http://www.w3.org/1999/02/22-rdf-syntax-ns#"
   xmlns:svg="http://www.w3.org/2000/svg"
   xmlns="http://www.w3.org/2000/svg"
   xmlns:sodipodi="http://sodipodi.sourceforge.net/DTD/sodipodi-0.dtd"
   xmlns:inkscape="http://www.inkscape.org/namespaces/inkscape"
   version="1.1"
   id="Layer_1"
   x="0px"
   y="0px"
   width="15px"
   height="15px"
   viewBox="0 0 15 15"
   enable-background="new 0 0 15 15"
   xml:space="preserve"
   inkscape:version="0.48.4 r9939"
   sodipodi:docname="crossfade_b.svg"><metadata
   id="metadata3249"><rdf:RDF><cc:Work
       rdf:about=""><dc:format>image/svg+xml</dc:format><dc:type
         rdf:resource="http://purl.org/dc/dcmitype/StillImage" /><dc:title /></cc:Work></rdf:RDF></metadata><defs
   id="defs3247" /><sodipodi:namedview
   pagecolor="#ffffff"
   bordercolor="#666666"
   borderopacity="1"
   objecttolerance="10"
   gridtolerance="10"
   guidetolerance="10"
   inkscape:pageopacity="0"
   inkscape:pageshadow="2"
   inkscape:window-width="1570"
   inkscape:window-height="1152"
   id="namedview3245"
   showgrid="true"
   inkscape:zoom="31.466667"
   inkscape:cx="12.831968"
   inkscape:cy="9.2161015"
   inkscape:window-x="675"
   inkscape:window-y="77"
   inkscape:window-maximized="0"
   inkscape:current-layer="Layer_1"><inkscape:grid
     type="xygrid"
     id="grid3251" /></sodipodi:namedview>



<g
   style="font-size:14px;font-style:normal;font-variant:normal;font-weight:bold;font-stretch:normal;line-height:125%;letter-spacing:0px;word-spacing:0px;fill:#000000;fill-opacity:1;stroke:none;font-family:Segoe UI;-inkscape-font-specification:Segoe UI Bold"
   id="text3059"
   transform="matrix(0.98447589,0,0,0.90149455,0.85559881,1.1123896)"><path
     d="m 3.1210938,12 0,-9.8027344 3.5683593,0 c 1.0937442,9.8e-6 1.9345637,0.2005305 2.522461,0.6015625 0.5878828,0.4010505 0.8818279,0.9661541 0.8818359,1.6953125 -8e-6,0.5286528 -0.1788816,0.9912175 -0.5366211,1.3876953 C 9.1993743,6.278326 8.7425063,6.5540419 8.1865234,6.7089844 l 0,0.027344 c 0.6972588,0.086594 1.2543871,0.3440805 1.6713868,0.772461 0.4169838,0.4283894 0.6254798,0.9501988 0.6254878,1.5654297 -8e-6,0.8977884 -0.321297,1.6098639 -0.9638667,2.1362299 C 8.8769462,11.736817 7.9996685,12 6.8876953,12 z m 2.2080078,-8.1757812 0,2.3242187 0.9707031,0 C 6.7555291,6.1484434 7.1144155,6.0379291 7.3764648,5.8168945 7.6385035,5.5958723 7.7695255,5.2916734 7.7695312,4.9042969 7.7695255,4.1842526 7.2317656,3.8242269 6.15625,3.8242188 z m 0,3.9648437 0,2.5839845 1.196289,0 c 0.5104117,2e-6 0.9103136,-0.118488 1.1997071,-0.355469 C 8.0144797,9.7806012 8.1591735,9.4570338 8.1591797,9.046875 8.1591735,8.6549513 8.0167583,8.3473344 7.7319336,8.1240234 7.4470974,7.9007202 7.0494741,7.7890667 6.5390625,7.7890625 z"
     id="path3064"
     inkscape:connector-curvature="0" /></g></svg>