<?xml version="1.0" encoding="UTF-8" standalone="no"?>
<!DOCTYPE svg PUBLIC "-//W3C//DTD SVG 1.1//EN" "http://www.w3.org/Graphics/SVG/1.1/DTD/svg11.dtd">
<svg width="19px" height="19px" version="1.1" xmlns="http://www.w3.org/2000/svg" xmlns:xlink="http://www.w3.org/1999/xlink" xml:space="preserve" style="fill-rule:evenodd;clip-rule:evenodd;stroke-linejoin:round;stroke-miterlimit:1.41421;">
    <path d="M17,4C17,2.896 16.104,2 15,2L4,2C2.896,2 2,2.896 2,4L2,15C2,16.104 2.896,17 4,17L15,17C16.104,17 17,16.104 17,15L17,4Z"/>
    <path d="M15.052,2.001L15.103,2.003L15.154,2.006L15.204,2.01L15.255,2.016L15.304,2.023L15.354,2.031L15.403,2.041L15.451,2.051L15.5,2.063L15.547,2.076L15.594,2.09L15.641,2.105L15.687,2.121L15.733,2.139L15.778,2.157L15.823,2.177L15.867,2.197L15.91,2.219L15.953,2.242L15.995,2.265L16.037,2.29L16.078,2.315L16.118,2.342L16.157,2.369L16.196,2.398L16.234,2.427L16.272,2.457L16.309,2.488L16.344,2.52L16.38,2.553L16.414,2.586L16.447,2.62L16.48,2.656L16.512,2.691L16.543,2.728L16.573,2.766L16.602,2.804L16.631,2.843L16.658,2.882L16.685,2.922L16.71,2.963L16.735,3.005L16.758,3.047L16.781,3.09L16.803,3.133L16.823,3.177L16.843,3.222L16.861,3.267L16.879,3.313L16.895,3.359L16.91,3.406L16.924,3.453L16.937,3.5L16.949,3.549L16.959,3.597L16.969,3.646L16.977,3.696L16.984,3.745L16.99,3.796L16.994,3.846L16.997,3.897L16.999,3.948L17,4L17,15L16.999,15.052L16.997,15.103L16.994,15.154L16.99,15.204L16.984,15.255L16.977,15.304L16.969,15.354L16.959,15.403L16.949,15.451L16.937,15.5L16.924,15.547L16.91,15.594L16.895,15.641L16.879,15.687L16.861,15.733L16.843,15.778L16.823,15.823L16.803,15.867L16.781,15.91L16.758,15.953L16.735,15.995L16.71,16.037L16.685,16.078L16.658,16.118L16.631,16.157L16.602,16.196L16.573,16.234L16.543,16.272L16.512,16.309L16.48,16.344L16.447,16.38L16.414,16.414L16.38,16.447L16.344,16.48L16.309,16.512L16.272,16.543L16.234,16.573L16.196,16.602L16.157,16.631L16.118,16.658L16.078,16.685L16.037,16.71L15.995,16.735L15.953,16.758L15.91,16.781L15.867,16.803L15.823,16.823L15.778,16.843L15.733,16.861L15.687,16.879L15.641,16.895L15.594,16.91L15.547,16.924L15.5,16.937L15.451,16.949L15.403,16.959L15.354,16.969L15.304,16.977L15.255,16.984L15.204,16.99L15.154,16.994L15.103,16.997L15.052,16.999L15,17L4,17L3.948,16.999L3.897,16.997L3.846,16.994L3.796,16.99L3.745,16.984L3.696,16.977L3.646,16.969L3.597,16.959L3.549,16.949L3.5,16.937L3.453,16.924L3.406,16.91L3.359,16.895L3.313,16.879L3.267,16.861L3.222,16.843L3.177,16.823L3.133,16.803L3.09,16.781L3.047,16.758L3.005,16.735L2.963,16.71L2.922,16.685L2.882,16.658L2.843,16.631L2.804,16.602L2.766,16.573L2.728,16.543L2.691,16.512L2.656,16.48L2.62,16.447L2.586,16.414L2.553,16.38L2.52,16.344L2.488,16.309L2.457,16.272L2.427,16.234L2.398,16.196L2.369,16.157L2.342,16.118L2.315,16.078L2.29,16.037L2.265,15.995L2.242,15.953L2.219,15.91L2.197,15.867L2.177,15.823L2.157,15.778L2.139,15.733L2.121,15.687L2.105,15.641L2.09,15.594L2.076,15.547L2.063,15.5L2.051,15.451L2.041,15.403L2.031,15.354L2.023,15.304L2.016,15.255L2.01,15.204L2.006,15.154L2.003,15.103L2.001,15.052L2,15L2,4L2.001,3.948L2.003,3.897L2.006,3.846L2.01,3.796L2.016,3.745L2.023,3.696L2.031,3.646L2.041,3.597L2.051,3.549L2.063,3.5L2.076,3.453L2.09,3.406L2.105,3.359L2.121,3.313L2.139,3.267L2.157,3.222L2.177,3.177L2.197,3.133L2.219,3.09L2.242,3.047L2.265,3.005L2.29,2.963L2.315,2.922L2.342,2.882L2.369,2.843L2.398,2.804L2.427,2.766L2.457,2.728L2.488,2.691L2.52,2.656L2.553,2.62L2.586,2.586L2.62,2.553L2.656,2.52L2.691,2.488L2.728,2.457L2.766,2.427L2.804,2.398L2.843,2.369L2.882,2.342L2.922,2.315L2.963,2.29L3.005,2.265L3.047,2.242L3.09,2.219L3.133,2.197L3.177,2.177L3.222,2.157L3.267,2.139L3.313,2.121L3.359,2.105L3.406,2.09L3.453,2.076L3.5,2.063L3.549,2.051L3.597,2.041L3.646,2.031L3.696,2.023L3.745,2.016L3.796,2.01L3.846,2.006L3.897,2.003L3.948,2.001L4,2L15,2L15.052,2.001ZM4.006,3L3.974,3L3.948,3.001L3.922,3.003L3.897,3.005L3.872,3.008L3.847,3.012L3.822,3.016L3.798,3.02L3.774,3.026L3.75,3.031L3.726,3.038L3.703,3.045L3.68,3.052L3.657,3.06L3.634,3.069L3.612,3.078L3.589,3.088L3.568,3.098L3.546,3.109L3.525,3.12L3.504,3.132L3.483,3.144L3.462,3.157L3.442,3.17L3.422,3.184L3.403,3.198L3.384,3.213L3.365,3.228L3.346,3.244L3.328,3.26L3.31,3.276L3.293,3.293L3.276,3.31L3.26,3.328L3.244,3.346L3.228,3.365L3.213,3.384L3.198,3.403L3.184,3.422L3.17,3.442L3.157,3.462L3.144,3.483L3.132,3.503L3.12,3.525L3.109,3.546L3.098,3.568L3.088,3.589L3.078,3.612L3.069,3.634L3.06,3.657L3.052,3.68L3.045,3.703L3.038,3.726L3.031,3.75L3.026,3.774L3.02,3.798L3.016,3.822L3.012,3.847L3.008,3.872L3.005,3.897L3.003,3.922L3.001,3.948L3,3.974L3,4.006L3,14.994L3,15.026L3.001,15.052L3.003,15.078L3.005,15.103L3.008,15.128L3.012,15.153L3.016,15.178L3.02,15.202L3.026,15.226L3.031,15.25L3.038,15.274L3.045,15.297L3.052,15.32L3.06,15.343L3.069,15.366L3.078,15.388L3.088,15.41L3.098,15.432L3.109,15.454L3.12,15.475L3.132,15.497L3.144,15.517L3.157,15.538L3.17,15.558L3.184,15.578L3.198,15.597L3.213,15.616L3.228,15.635L3.244,15.654L3.26,15.672L3.276,15.69L3.293,15.707L3.31,15.724L3.328,15.74L3.346,15.756L3.365,15.772L3.384,15.787L3.403,15.802L3.422,15.816L3.442,15.83L3.462,15.843L3.483,15.856L3.504,15.868L3.525,15.88L3.546,15.891L3.568,15.902L3.589,15.912L3.612,15.922L3.634,15.931L3.657,15.94L3.68,15.948L3.703,15.955L3.726,15.962L3.75,15.969L3.774,15.974L3.798,15.98L3.822,15.984L3.847,15.988L3.872,15.992L3.897,15.995L3.922,15.997L3.948,15.999L3.974,16L4.006,16L14.994,16L15.026,16L15.052,15.999L15.078,15.997L15.103,15.995L15.128,15.992L15.153,15.988L15.178,15.984L15.202,15.98L15.226,15.974L15.25,15.969L15.274,15.962L15.297,15.955L15.32,15.948L15.343,15.94L15.366,15.931L15.388,15.922L15.411,15.912L15.432,15.902L15.454,15.891L15.475,15.88L15.496,15.868L15.517,15.856L15.538,15.843L15.558,15.83L15.578,15.816L15.597,15.802L15.616,15.787L15.635,15.772L15.654,15.756L15.672,15.74L15.689,15.724L15.707,15.707L15.724,15.69L15.74,15.672L15.756,15.654L15.772,15.635L15.787,15.616L15.802,15.597L15.816,15.578L15.83,15.558L15.843,15.538L15.856,15.517L15.868,15.496L15.88,15.475L15.891,15.454L15.902,15.432L15.912,15.41L15.922,15.388L15.931,15.366L15.94,15.343L15.948,15.32L15.955,15.297L15.962,15.274L15.969,15.25L15.974,15.226L15.98,15.202L15.984,15.178L15.988,15.153L15.992,15.128L15.995,15.103L15.997,15.078L15.999,15.052L16,15.026L16,14.994L16,4.006L16,3.974L15.999,3.948L15.997,3.922L15.995,3.897L15.992,3.872L15.988,3.847L15.984,3.822L15.98,3.798L15.974,3.774L15.969,3.75L15.962,3.726L15.955,3.703L15.948,3.68L15.94,3.657L15.931,3.634L15.922,3.612L15.912,3.589L15.902,3.568L15.891,3.546L15.88,3.525L15.868,3.504L15.856,3.483L15.843,3.462L15.83,3.442L15.816,3.422L15.802,3.403L15.787,3.384L15.772,3.365L15.756,3.346L15.74,3.328L15.724,3.31L15.707,3.293L15.689,3.276L15.672,3.26L15.654,3.244L15.635,3.228L15.616,3.213L15.597,3.198L15.578,3.184L15.558,3.17L15.538,3.157L15.517,3.144L15.496,3.132L15.475,3.12L15.454,3.109L15.432,3.098L15.411,3.088L15.388,3.078L15.366,3.069L15.343,3.06L15.32,3.052L15.297,3.045L15.274,3.038L15.25,3.031L15.226,3.026L15.202,3.02L15.178,3.016L15.153,3.012L15.128,3.008L15.103,3.005L15.078,3.003L15.052,3.001L15.026,3L14.994,3L4.006,3Z" style="fill:rgb(208,208,208);"/>
    <path d="M5,9.05L9.5,9.05L9.5,7.167L14,7.167L14,13L5,13L5,9.05ZM9,6.144L9,8L5,8L5,6L8.938,6L9,6.144Z" style="fill:rgb(201,201,201);"/>
    <path d="M5,9.05L9.5,9.05L9.5,7.167L14,7.167L14,13L5,13L5,9.05ZM9,6.144L9,8L5,8L5,6L8.938,6L9,6.144Z" style="fill:rgb(201,201,201);"/>
</svg>
