<?xml version="1.0" encoding="UTF-8" standalone="no"?>
<!DOCTYPE svg PUBLIC "-//W3C//DTD SVG 1.1//EN" "http://www.w3.org/Graphics/SVG/1.1/DTD/svg11.dtd">
<svg width="19px" height="19px" version="1.1" xmlns="http://www.w3.org/2000/svg" xmlns:xlink="http://www.w3.org/1999/xlink" xml:space="preserve" style="fill-rule:evenodd;clip-rule:evenodd;">
    <path d="M17.171,4C17.171,2.896 16.275,2 15.171,2L4.171,2C3.067,2 2.171,2.896 2.171,4L2.171,15C2.171,16.104 3.067,17 4.171,17L15.171,17C16.275,17 17.171,16.104 17.171,15L17.171,4Z"/>
    <path d="M15.222,2.001L15.274,2.003L15.325,2.006L15.375,2.01L15.425,2.016L15.475,2.023L15.525,2.031L15.574,2.041L15.622,2.051L15.67,2.063L15.718,2.076L15.765,2.09L15.812,2.105L15.858,2.121L15.904,2.139L15.949,2.157L15.994,2.177L16.038,2.197L16.081,2.219L16.124,2.242L16.166,2.265L16.208,2.29L16.248,2.315L16.289,2.342L16.328,2.369L16.367,2.398L16.405,2.427L16.443,2.457L16.479,2.488L16.515,2.52L16.55,2.553L16.585,2.586L16.618,2.62L16.651,2.656L16.683,2.691L16.714,2.728L16.744,2.766L16.773,2.804L16.802,2.843L16.829,2.882L16.856,2.922L16.881,2.963L16.906,3.005L16.929,3.047L16.952,3.09L16.973,3.133L16.994,3.177L17.013,3.222L17.032,3.267L17.049,3.313L17.066,3.359L17.081,3.406L17.095,3.453L17.108,3.5L17.12,3.549L17.13,3.597L17.14,3.646L17.148,3.696L17.155,3.745L17.16,3.796L17.165,3.846L17.168,3.897L17.17,3.948L17.171,4L17.171,15L17.17,15.052L17.168,15.103L17.165,15.154L17.16,15.204L17.155,15.255L17.148,15.304L17.14,15.354L17.13,15.403L17.12,15.451L17.108,15.5L17.095,15.547L17.081,15.594L17.066,15.641L17.049,15.687L17.032,15.733L17.013,15.778L16.994,15.823L16.973,15.867L16.952,15.91L16.929,15.953L16.906,15.995L16.881,16.037L16.856,16.078L16.829,16.118L16.802,16.157L16.773,16.196L16.744,16.234L16.714,16.272L16.683,16.309L16.651,16.344L16.618,16.38L16.585,16.414L16.55,16.447L16.515,16.48L16.479,16.512L16.443,16.543L16.405,16.573L16.367,16.602L16.328,16.631L16.289,16.658L16.248,16.685L16.208,16.71L16.166,16.735L16.124,16.758L16.081,16.781L16.038,16.803L15.994,16.823L15.949,16.843L15.904,16.861L15.858,16.879L15.812,16.895L15.765,16.91L15.718,16.924L15.67,16.937L15.622,16.949L15.574,16.959L15.525,16.969L15.475,16.977L15.425,16.984L15.375,16.99L15.325,16.994L15.274,16.997L15.222,16.999L15.171,17L4.171,17L4.119,16.999L4.068,16.997L4.017,16.994L3.966,16.99L3.916,16.984L3.866,16.977L3.817,16.969L3.768,16.959L3.719,16.949L3.671,16.937L3.624,16.924L3.576,16.91L3.53,16.895L3.483,16.879L3.438,16.861L3.393,16.843L3.348,16.823L3.304,16.803L3.261,16.781L3.218,16.758L3.176,16.735L3.134,16.71L3.093,16.685L3.053,16.658L3.013,16.631L2.974,16.602L2.936,16.573L2.899,16.543L2.862,16.512L2.826,16.48L2.791,16.447L2.757,16.414L2.723,16.38L2.691,16.344L2.659,16.309L2.628,16.272L2.598,16.234L2.568,16.196L2.54,16.157L2.513,16.118L2.486,16.078L2.46,16.037L2.436,15.995L2.412,15.953L2.39,15.91L2.368,15.867L2.348,15.823L2.328,15.778L2.31,15.733L2.292,15.687L2.276,15.641L2.261,15.594L2.247,15.547L2.234,15.5L2.222,15.451L2.211,15.403L2.202,15.354L2.194,15.304L2.187,15.255L2.181,15.204L2.177,15.154L2.173,15.103L2.171,15.052L2.171,15L2.171,4L2.171,3.948L2.173,3.897L2.177,3.846L2.181,3.796L2.187,3.745L2.194,3.696L2.202,3.646L2.211,3.597L2.222,3.549L2.234,3.5L2.247,3.453L2.261,3.406L2.276,3.359L2.292,3.313L2.31,3.267L2.328,3.222L2.348,3.177L2.368,3.133L2.39,3.09L2.412,3.047L2.436,3.005L2.46,2.963L2.486,2.922L2.513,2.882L2.54,2.843L2.568,2.804L2.598,2.766L2.628,2.728L2.659,2.691L2.691,2.656L2.723,2.62L2.757,2.586L2.791,2.553L2.826,2.52L2.862,2.488L2.899,2.457L2.936,2.427L2.974,2.398L3.013,2.369L3.053,2.342L3.093,2.315L3.134,2.29L3.176,2.265L3.218,2.242L3.261,2.219L3.304,2.197L3.348,2.177L3.393,2.157L3.438,2.139L3.483,2.121L3.53,2.105L3.576,2.09L3.624,2.076L3.671,2.063L3.719,2.051L3.768,2.041L3.817,2.031L3.866,2.023L3.916,2.016L3.966,2.01L4.017,2.006L4.068,2.003L4.119,2.001L4.171,2L15.171,2L15.222,2.001ZM4.177,3L4.144,3L4.119,3.001L4.093,3.003L4.068,3.005L4.042,3.008L4.018,3.012L3.993,3.016L3.969,3.02L3.944,3.026L3.921,3.031L3.897,3.038L3.874,3.045L3.85,3.052L3.828,3.06L3.805,3.069L3.782,3.078L3.76,3.088L3.738,3.098L3.717,3.109L3.695,3.12L3.674,3.132L3.654,3.144L3.633,3.157L3.613,3.17L3.593,3.184L3.573,3.198L3.554,3.213L3.536,3.228L3.517,3.244L3.499,3.26L3.481,3.276L3.464,3.293L3.447,3.311L3.431,3.328L3.415,3.346L3.399,3.365L3.384,3.384L3.369,3.403L3.355,3.422L3.341,3.442L3.328,3.462L3.315,3.483L3.303,3.503L3.291,3.525L3.28,3.546L3.269,3.568L3.259,3.589L3.249,3.612L3.24,3.634L3.231,3.657L3.223,3.68L3.216,3.703L3.209,3.726L3.202,3.75L3.196,3.774L3.191,3.798L3.186,3.822L3.182,3.847L3.179,3.872L3.176,3.897L3.174,3.922L3.172,3.948L3.171,3.974L3.171,4.006L3.171,14.994L3.171,15.026L3.172,15.052L3.174,15.078L3.176,15.103L3.179,15.128L3.182,15.153L3.186,15.178L3.191,15.202L3.196,15.226L3.202,15.25L3.209,15.274L3.216,15.297L3.223,15.32L3.231,15.343L3.24,15.366L3.249,15.388L3.259,15.411L3.269,15.432L3.28,15.454L3.291,15.475L3.303,15.497L3.315,15.517L3.328,15.538L3.341,15.558L3.355,15.578L3.369,15.597L3.384,15.616L3.399,15.635L3.415,15.654L3.431,15.672L3.447,15.689L3.464,15.707L3.481,15.724L3.499,15.74L3.517,15.756L3.536,15.772L3.554,15.787L3.573,15.802L3.593,15.816L3.613,15.83L3.633,15.843L3.654,15.856L3.674,15.868L3.695,15.88L3.717,15.891L3.738,15.902L3.76,15.912L3.782,15.922L3.805,15.931L3.827,15.94L3.85,15.948L3.874,15.955L3.897,15.962L3.921,15.969L3.944,15.974L3.969,15.98L3.993,15.984L4.018,15.988L4.042,15.992L4.068,15.995L4.093,15.997L4.119,15.999L4.145,16L4.177,16L15.164,16L15.197,16L15.223,15.999L15.249,15.997L15.274,15.995L15.299,15.992L15.324,15.988L15.349,15.984L15.373,15.98L15.397,15.974L15.421,15.969L15.445,15.962L15.468,15.955L15.491,15.948L15.514,15.94L15.537,15.931L15.559,15.922L15.581,15.912L15.603,15.902L15.625,15.891L15.646,15.88L15.667,15.868L15.688,15.856L15.709,15.843L15.729,15.83L15.749,15.816L15.768,15.802L15.787,15.787L15.806,15.772L15.824,15.756L15.843,15.74L15.86,15.724L15.877,15.707L15.894,15.69L15.911,15.672L15.927,15.654L15.943,15.635L15.958,15.616L15.972,15.597L15.987,15.578L16,15.558L16.014,15.538L16.026,15.517L16.039,15.496L16.051,15.475L16.062,15.454L16.073,15.432L16.083,15.41L16.093,15.388L16.102,15.366L16.11,15.343L16.118,15.32L16.126,15.297L16.133,15.274L16.139,15.25L16.145,15.226L16.15,15.202L16.155,15.178L16.159,15.153L16.163,15.128L16.165,15.103L16.168,15.078L16.169,15.052L16.17,15.026L16.171,14.994L16.171,4.006L16.17,3.974L16.169,3.948L16.168,3.922L16.165,3.897L16.163,3.872L16.159,3.847L16.155,3.822L16.15,3.798L16.145,3.774L16.139,3.75L16.133,3.726L16.126,3.703L16.118,3.68L16.11,3.657L16.102,3.634L16.093,3.612L16.083,3.589L16.073,3.568L16.062,3.546L16.051,3.525L16.039,3.504L16.027,3.483L16.014,3.462L16,3.442L15.987,3.422L15.972,3.403L15.958,3.384L15.943,3.365L15.927,3.346L15.911,3.328L15.894,3.31L15.877,3.293L15.86,3.276L15.843,3.26L15.824,3.244L15.806,3.228L15.787,3.213L15.768,3.198L15.749,3.184L15.729,3.17L15.709,3.157L15.688,3.144L15.667,3.132L15.646,3.12L15.625,3.109L15.603,3.098L15.581,3.088L15.559,3.078L15.537,3.069L15.514,3.06L15.491,3.052L15.468,3.045L15.445,3.038L15.421,3.032L15.397,3.026L15.373,3.02L15.349,3.016L15.324,3.012L15.299,3.008L15.274,3.005L15.249,3.003L15.223,3.001L15.197,3L15.164,3L4.177,3Z" style="fill:rgb(214,127,255);"/>
    <path id="path9501" d="M14.245,9.834L12.567,8.179C12.848,7.744 13.001,7.238 13.001,6.709C13.001,5.977 12.712,5.289 12.187,4.77C11.661,4.252 10.963,3.968 10.22,3.968C9.477,3.968 8.779,4.253 8.254,4.771C7.729,5.289 7.44,5.977 7.44,6.709C7.44,7.442 7.729,8.13 8.254,8.648C8.779,9.166 9.478,9.451 10.22,9.451C10.757,9.451 11.269,9.3 11.711,9.023L13.389,10.677L14.245,9.834ZM8.853,8.058C8.487,7.698 8.286,7.219 8.286,6.709C8.286,6.2 8.487,5.721 8.853,5.361C9.218,5 9.704,4.802 10.22,4.802C10.736,4.802 11.222,5 11.588,5.361C11.953,5.721 12.155,6.2 12.155,6.709C12.155,7.219 11.954,7.698 11.589,8.058C11.222,8.419 10.737,8.616 10.22,8.616C9.704,8.616 9.218,8.419 8.853,8.058Z" style="fill:rgb(214,127,255);fill-rule:nonzero;"/>
    <path id="path9660" d="M4.338,13.192C4.338,11.635 6.115,11.635 6.115,11.635C6.115,11.635 7.893,11.635 7.893,13.192C7.893,14.748 9.671,14.748 9.671,14.748C9.671,14.748 11.448,14.748 11.448,13.192C11.448,11.635 13.226,11.635 13.226,11.635C13.226,11.635 15.004,11.635 15.004,13.192" style="fill:none;stroke:rgb(214,127,255);stroke-width:0.84px;"/>
</svg>
