<?xml version="1.0" encoding="UTF-8" standalone="no"?>
<svg
   xmlns:dc="http://purl.org/dc/elements/1.1/"
   xmlns:cc="http://creativecommons.org/ns#"
   xmlns:rdf="http://www.w3.org/1999/02/22-rdf-syntax-ns#"
   xmlns:svg="http://www.w3.org/2000/svg"
   xmlns="http://www.w3.org/2000/svg"
   xmlns:sodipodi="http://sodipodi.sourceforge.net/DTD/sodipodi-0.dtd"
   xmlns:inkscape="http://www.inkscape.org/namespaces/inkscape"
   width="19px"
   height="19px"
   version="1.1"
   xml:space="preserve"
   style="fill-rule:evenodd;clip-rule:evenodd;stroke-linejoin:round;stroke-miterlimit:1.41421;"
   id="svg4679"
   sodipodi:docname="device_drum_module.svg"
   inkscape:version="0.92.2 (5c3e80d, 2017-08-06)"><metadata
     id="metadata4685"><rdf:RDF><cc:Work
         rdf:about=""><dc:format>image/svg+xml</dc:format><dc:type
           rdf:resource="http://purl.org/dc/dcmitype/StillImage" /></cc:Work></rdf:RDF></metadata><defs
     id="defs4683" /><sodipodi:namedview
     pagecolor="#ffffff"
     bordercolor="#666666"
     borderopacity="1"
     objecttolerance="10"
     gridtolerance="10"
     guidetolerance="10"
     inkscape:pageopacity="0"
     inkscape:pageshadow="2"
     inkscape:window-width="1858"
     inkscape:window-height="1177"
     id="namedview4681"
     showgrid="false"
     inkscape:zoom="35.132042"
     inkscape:cx="10.611395"
     inkscape:cy="11.896484"
     inkscape:window-x="54"
     inkscape:window-y="-8"
     inkscape:window-maximized="1"
     inkscape:current-layer="svg4679" /><path
     id="path3109.-1"
     d="m 16.33781,12.805363 v 0.03477 l -0.0025,0.03477 -0.0025,0.03348 -0.0037,0.03477 -0.005,0.03348 -0.0062,0.03477 -0.0074,0.03348 -0.0074,0.03348 -0.0099,0.03477 -0.0099,0.03348 -0.01114,0.03348 -0.01238,0.03219 -0.01362,0.03348 -0.01486,0.03348 -0.01486,0.0322 -0.01733,0.03348 -0.01733,0.0322 -0.01857,0.03219 -0.03962,0.06439 -0.04457,0.06439 -0.04705,0.0631 -0.052,0.06181 -0.05571,0.06181 -0.05819,0.06182 -0.06314,0.06053 -0.06686,0.05924 -0.06933,0.05924 -0.07428,0.05795 -0.07676,0.05666 -0.08047,0.05666 -0.08295,0.05538 -0.08666,0.05537 -0.09038,0.0528 -0.09409,0.0528 -0.09657,0.0528 -0.09905,0.05023 -0.102759,0.05022 -0.105235,0.04894 -0.10895,0.04894 -0.111426,0.04636 -0.113901,0.04636 -0.116378,0.04378 -0.120092,0.04378 -0.122569,0.04379 -0.123806,0.04121 -0.12752,0.03992 -0.129997,0.03863 -0.132473,0.03863 -0.134949,0.03606 -0.137425,0.03606 -0.138663,0.03348 -0.141139,0.03348 -0.143615,0.03091 -0.146091,0.03091 -0.148568,0.02833 -0.149806,0.02833 -0.151043,0.02576 -0.15352,0.02447 -0.155996,0.02318 -0.157234,0.02189 -0.158472,0.0206 -0.160948,0.01803 -0.162186,0.01803 -0.164663,0.01545 -0.1659,0.01417 -0.165901,0.01288 -0.168376,0.0103 -0.170853,0.009 -0.170853,0.0077 -0.17209,0.0064 -0.1733291,0.0039 -0.1745669,0.0026 -0.1758049,0.0013 -0.175805,-0.0013 -0.1745668,-0.0026 -0.1733288,-0.0039 -0.1720908,-0.0064 -0.1708527,-0.0077 -0.1708527,-0.009 -0.1683765,-0.0103 -0.1658784,-0.01283 -0.1659005,-0.01417 -0.1646623,-0.01545 -0.1621863,-0.01803 -0.1609482,-0.01803 -0.158472,-0.0206 -0.157234,-0.02189 -0.1559959,-0.02318 -0.1535198,-0.02447 -0.1510437,-0.02576 -0.1498056,-0.02833 -0.1485676,-0.02833 -0.1460914,-0.03091 -0.1436153,-0.03091 -0.1411392,-0.03348 -0.138663,-0.03348 -0.137425,-0.03606 -0.1349489,-0.03606 -0.1324727,-0.03863 -0.1299966,-0.03863 -0.1275205,-0.03992 -0.1238063,-0.04121 -0.1225682,-0.04379 -0.1200921,-0.04378 -0.1163779,-0.04378 -0.1139018,-0.04636 -0.1114257,-0.04636 -0.1089495,-0.04894 -0.1052353,-0.04894 -0.1027593,-0.05022 -0.099045,-0.05022 -0.096569,-0.0528 -0.094093,-0.0528 -0.090379,-0.0528 -0.086664,-0.05537 -0.08295,-0.05538 -0.080474,-0.05666 -0.07676,-0.05666 -0.074284,-0.05795 -0.069332,-0.05924 -0.066855,-0.05924 -0.063141,-0.06053 -0.058189,-0.06182 -0.055713,-0.06181 -0.051999,-0.06181 -0.047046,-0.0631 -0.04457,-0.06439 -0.039618,-0.06439 -0.018571,-0.03219 -0.017333,-0.0322 -0.017333,-0.03348 -0.014857,-0.0322 -0.014857,-0.03348 -0.013619,-0.03348 -0.012381,-0.03219 -0.011143,-0.03348 -0.0099,-0.03348 -0.0099,-0.03477 -0.00743,-0.03348 -0.00743,-0.03348 -0.00619,-0.03477 -0.00495,-0.03348 -0.00371,-0.03477 -0.00248,-0.03348 -0.00248,-0.03477 V 12.805363 6.5646694 H 16.33781 Z M 3.957181,7.8524725 V 12.7487 l 0.0099,0.01545 0.014857,0.01803 0.017333,0.02189 0.022285,0.02447 0.025999,0.02833 0.030952,0.02962 0.035904,0.03091 0.039618,0.03348 0.04457,0.03606 0.049523,0.03606 0.053237,0.03735 0.056951,0.03863 0.061903,0.03863 0.065617,0.03863 0.07057,0.03992 0.074284,0.03992 0.07676,0.03992 0.081712,0.03992 0.085426,0.03992 0.089141,0.03863 0.091617,0.03863 0.095331,0.03863 0.099045,0.03863 0.1027593,0.03735 0.1052353,0.03606 0.1077115,0.03606 0.1114256,0.03477 0.1139018,0.03477 0.117616,0.03348 0.118854,0.03219 0.1225683,0.03219 0.1250443,0.03091 0.1275205,0.02962 0.1287586,0.02833 0.1324727,0.02704 0.1349488,0.02576 0.136187,0.02576 0.138663,0.02318 0.1411392,0.02318 0.1423772,0.0206 0.1448534,0.0206 0.1460914,0.01803 0.1485675,0.01803 0.1498057,0.01545 0.1522817,0.01545 0.1535198,0.01288 0.1547579,0.01159 0.1559959,0.0103 0.157234,0.0077 0.1597101,0.0077 0.1609482,0.0052 0.1609482,0.0039 0.1634243,0.0026 0.1634243,0.0013 0.1634243,-0.0013 0.1634243,-0.0026 0.1609479,-0.0039 0.160948,-0.0052 0.159711,-0.0077 0.157233,-0.0077 0.155996,-0.0103 0.154758,-0.01159 0.15352,-0.01288 0.152282,-0.01545 0.149805,-0.01545 0.148568,-0.01803 0.146091,-0.01803 0.144853,-0.0206 0.142378,-0.0206 0.141139,-0.02318 0.138663,-0.02318 0.136187,-0.02576 0.134949,-0.02576 0.132472,-0.02704 0.128759,-0.02833 0.12752,-0.02962 0.125045,-0.03091 0.122568,-0.03219 0.118854,-0.03219 0.117616,-0.03348 0.113902,-0.03477 0.111425,-0.03477 0.107712,-0.03606 0.105235,-0.03606 0.102759,-0.03735 0.09905,-0.03863 0.09533,-0.03863 0.09162,-0.03863 0.08914,-0.03863 0.08543,-0.03992 0.08171,-0.03992 0.07676,-0.03992 0.07428,-0.03992 0.07057,-0.03992 0.06562,-0.03863 0.0619,-0.03863 0.05695,-0.03863 0.05324,-0.03735 0.04952,-0.03606 0.04457,-0.03606 0.03962,-0.03348 0.0359,-0.03091 0.03095,-0.03091 0.026,-0.02704 0.02228,-0.02447 0.01733,-0.02189 0.01486,-0.01803 0.0099,-0.01545 V 7.8524725 Z"
     style="fill:#000000;stroke-width:1.26268816"
     inkscape:connector-curvature="0" /><path
     id="path3109"
     d="m 16.33781,6.4977036 c 0,1.4397639 -3.048111,2.6078017 -6.8093459,2.6078017 -3.7612352,0 -6.8093461,-1.1680378 -6.8093461,-2.6078017 0,-1.4397639 3.0481109,-2.6078013 6.8093461,-2.6078013 3.7612349,0 6.8093459,1.1680374 6.8093459,2.6078013 z"
     style="fill:#000000;fill-rule:nonzero;stroke-width:1.26268816"
     inkscape:connector-curvature="0" /><path
     d="m 9.704269,3.8911901 0.1745669,0.00258 0.1733291,0.00386 0.17209,0.00515 0.170853,0.00773 0.170853,0.00901 0.168376,0.01159 0.165901,0.01159 0.1659,0.014166 0.164663,0.015454 0.162186,0.016741 0.160948,0.018029 0.158472,0.019317 0.157234,0.021893 0.155996,0.021893 0.15352,0.024468 0.151043,0.025756 0.149806,0.027044 0.148568,0.028332 0.146091,0.028332 0.143615,0.030907 0.141139,0.032195 0.138663,0.033483 0.137425,0.034771 0.134949,0.036058 0.132473,0.036059 0.129997,0.038634 0.12752,0.038634 0.123806,0.04121 0.122569,0.04121 0.120092,0.042497 0.116378,0.043785 0.113901,0.045073 0.111426,0.045073 0.10895,0.047649 0.105235,0.047649 0.102759,0.048936 0.09905,0.048936 0.09657,0.051512 0.09409,0.051512 0.09038,0.0528 0.08666,0.0528 0.08295,0.054088 0.08047,0.055376 0.07676,0.055375 0.07428,0.056663 0.06933,0.057951 0.06686,0.057951 0.06314,0.059239 0.05819,0.059239 0.05571,0.060527 0.052,0.060527 0.04705,0.061815 0.04457,0.061815 0.03962,0.063102 0.01857,0.030907 0.01733,0.032195 0.01733,0.032195 0.01486,0.032195 0.01486,0.032195 0.01362,0.032195 0.01238,0.032195 0.01114,0.032195 0.0099,0.033483 0.0099,0.032195 0.0074,0.033483 0.0074,0.032195 0.0062,0.033483 0.005,0.033483 0.0037,0.033483 0.0025,0.033483 0.0025,0.033485 v 0.033483 0.033483 l -0.0025,0.033483 -0.0025,0.033483 -0.0037,0.033483 -0.005,0.033483 -0.0062,0.033483 -0.0074,0.033483 -0.0074,0.032195 -0.0099,0.033483 -0.0099,0.032195 -0.01114,0.032195 -0.01238,0.032195 -0.01362,0.033483 -0.01486,0.030907 -0.01486,0.032195 -0.01733,0.032195 -0.01733,0.032195 -0.01857,0.030907 -0.03962,0.063102 -0.04457,0.061815 -0.04705,0.061815 -0.052,0.061814 -0.05571,0.059239 -0.05819,0.060527 -0.06314,0.057951 -0.06686,0.057951 -0.06933,0.057951 -0.07428,0.056663 -0.07676,0.055376 -0.08047,0.055376 -0.08295,0.054088 -0.08666,0.054088 -0.09038,0.051512 -0.09409,0.051512 -0.09657,0.051512 -0.09905,0.048936 -0.102759,0.048936 -0.105235,0.047649 -0.10895,0.047649 -0.111426,0.045073 -0.113901,0.045073 -0.116378,0.043785 -0.120092,0.042497 -0.122569,0.04121 -0.123806,0.04121 -0.12752,0.038634 -0.129997,0.038634 -0.132473,0.036058 -0.134949,0.036058 -0.137425,0.034771 -0.138663,0.033483 -0.141139,0.032195 -0.143615,0.030907 -0.146091,0.02962 -0.148568,0.027044 -0.149806,0.027044 -0.151043,0.025756 -0.15352,0.02447 -0.155996,0.02189 -0.157234,0.02189 -0.158472,0.01932 -0.160948,0.01803 -0.162186,0.01674 -0.164663,0.01545 -0.1659,0.01417 -0.165901,0.01159 -0.168376,0.01159 -0.170853,0.009 -0.170853,0.0077 -0.17209,0.0052 -0.1733291,0.0039 -0.1745669,0.0026 -0.1758049,0.0013 -0.175805,-0.0013 -0.1745668,-0.0026 -0.1733288,-0.0039 -0.1720908,-0.0052 -0.1708527,-0.0077 -0.1708527,-0.009 L 8.3225908,9.0642953 8.1566904,9.0527053 7.9907899,9.0385393 7.8261276,9.0230853 7.6639413,9.0063443 7.5029931,8.9883153 7.3445211,8.9689973 7.1872871,8.9471053 7.0312912,8.9252123 6.8777714,8.9007443 6.7267277,8.8749882 6.5769221,8.8479443 6.4283545,8.8209004 6.2822631,8.7912809 6.1386478,8.7603737 5.9975086,8.7281786 5.8588456,8.6946957 5.7214206,8.659925 5.5864717,8.6238665 5.453999,8.5878081 5.3240024,8.549174 5.1964819,8.5105399 5.0726756,8.4693302 4.9501074,8.4281205 4.8300153,8.385623 4.7136374,8.3418377 4.5997356,8.2967646 4.4883099,8.2516914 4.3793604,8.2040427 4.2741251,8.156394 4.1713658,8.1074575 4.0723208,8.058521 3.9757519,8.0070089 3.8816591,7.9554967 3.7912805,7.9039846 3.7046161,7.8498969 3.6216659,7.7958091 3.5411918,7.7404336 3.4644319,7.6850581 3.3901481,7.6283947 3.3208166,7.5704436 3.2539612,7.5124925 3.19082,7.4545413 3.132631,7.3940146 3.0769182,7.3347756 3.0249196,7.2729611 2.9778732,7.2111465 2.9333029,7.149332 2.8936849,7.0862296 2.875114,7.0553224 l -0.017333,-0.032195 -0.017333,-0.032195 -0.014857,-0.032195 -0.014857,-0.030907 -0.013619,-0.033483 -0.012381,-0.032195 -0.011143,-0.032195 -0.0099,-0.032195 -0.0099,-0.033483 -0.00743,-0.032195 -0.00743,-0.033483 -0.00619,-0.033483 -0.00495,-0.033483 -0.00371,-0.033483 -0.00248,-0.033483 -0.00248,-0.033483 v -0.033483 -0.033483 l 0.00248,-0.033483 0.00248,-0.033483 0.00371,-0.033483 0.00495,-0.033483 0.00619,-0.033483 0.00743,-0.032195 0.00743,-0.033483 0.0099,-0.032195 0.0099,-0.033483 0.011143,-0.032195 0.012381,-0.032195 0.013619,-0.032195 0.014857,-0.032195 0.014857,-0.032195 0.017333,-0.032195 0.017333,-0.032195 0.018571,-0.030907 0.039618,-0.063102 0.04457,-0.061815 0.047046,-0.061815 0.051999,-0.060527 0.055713,-0.060527 0.058189,-0.059239 0.063141,-0.059239 0.066855,-0.057951 0.069332,-0.057951 0.074284,-0.056663 0.07676,-0.055375 0.080474,-0.055376 0.08295,-0.054088 0.086664,-0.0528 0.090379,-0.0528 0.094093,-0.051512 0.096569,-0.051512 0.099045,-0.048936 0.1027593,-0.048936 0.1052353,-0.047649 0.1089495,-0.047649 0.1114257,-0.045073 0.1139018,-0.045073 0.1163779,-0.043785 0.1200921,-0.042497 0.1225682,-0.04121 0.1238063,-0.04121 0.1275205,-0.038634 0.1299966,-0.038634 0.1324727,-0.036059 0.1349489,-0.036058 0.137425,-0.034771 0.138663,-0.033483 0.1411392,-0.032195 0.1436153,-0.030907 0.1460914,-0.028332 0.1485676,-0.028332 0.1498056,-0.027044 0.1510437,-0.025756 0.1535198,-0.024468 0.1559959,-0.021893 0.157234,-0.021893 0.158472,-0.019317 0.1609482,-0.018029 0.1621863,-0.016741 0.1646623,-0.015454 0.1659005,-0.014166 0.1659004,-0.01159 0.1683765,-0.01159 0.1708527,-0.00901 0.1708527,-0.00773 0.1720908,-0.00515 0.1733288,-0.00386 0.1745665,-0.00258 0.175805,-0.00129 z m -0.3404673,1.2878031 -0.1621862,0.00129 -0.1621863,0.00515 -0.1609482,0.00515 -0.1597101,0.00644 -0.157234,0.00901 -0.157234,0.00901 -0.1547578,0.01159 -0.1535198,0.012878 -0.1522818,0.014166 -0.1510436,0.015454 -0.1485676,0.018029 -0.1460914,0.018029 -0.1448534,0.019317 -0.1436153,0.020605 -0.1411391,0.021893 -0.1386631,0.02318 -0.137425,0.024468 -0.1349488,0.025756 -0.1312347,0.027044 -0.1299966,0.028332 -0.1287586,0.028332 -0.1250443,0.029619 -0.1225682,0.030907 -0.1200921,0.032195 -0.116378,0.032195 -0.1151398,0.034771 -0.1114257,0.033483 -0.1077114,0.036059 -0.1064734,0.034771 -0.1015212,0.037346 -0.099045,0.037346 -0.096569,0.037346 -0.092855,0.037346 -0.08914,0.038634 -0.085426,0.038634 -0.081712,0.038634 -0.077998,0.039922 -0.073046,0.038634 -0.07057,0.038634 -0.065617,0.038634 -0.061903,0.037346 -0.058189,0.037346 -0.053237,0.037346 -0.048284,0.034771 -0.04457,0.034771 -0.039618,0.032195 -0.035904,0.030907 -0.030952,0.028332 -0.014857,0.015454 0.014857,0.015454 0.030952,0.028332 0.035904,0.030907 0.039618,0.032195 0.04457,0.034771 0.048284,0.036059 0.053237,0.036059 0.058189,0.037346 0.061903,0.037346 0.065617,0.038634 0.07057,0.038634 0.073046,0.038634 0.077998,0.039922 0.081712,0.038634 0.086664,0.038634 0.087902,0.038634 0.092855,0.037346 0.096569,0.038634 0.099045,0.036058 0.1015212,0.037346 0.1064734,0.036058 0.1077114,0.034771 0.1114257,0.034771 0.1151398,0.033483 0.116378,0.032195 0.1200921,0.032195 0.1225682,0.030907 0.1250443,0.029619 0.1287586,0.028332 0.1299966,0.028332 0.1312347,0.027044 0.1349488,0.025756 0.137425,0.024468 0.1386631,0.02318 0.1411391,0.021893 0.1436153,0.020605 0.1448534,0.019317 0.1460914,0.019317 0.1485676,0.016742 0.1510436,0.015454 0.1522818,0.014166 0.1535198,0.012878 0.1547578,0.01159 0.157234,0.00901 0.157234,0.00901 0.1597101,0.00644 0.1609482,0.00644 0.1621863,0.00386 0.1621862,0.00129 0.1646624,0.00129 0.1646623,-0.00129 0.1621863,-0.00129 0.1621863,-0.00386 0.160948,-0.00644 0.15971,-0.00644 0.157234,-0.00901 0.157234,-0.00901 0.154758,-0.01159 0.15352,-0.012878 0.152282,-0.014166 0.151043,-0.015454 0.148568,-0.016742 0.146091,-0.019317 0.144854,-0.019317 0.143615,-0.020605 0.141139,-0.021893 0.138663,-0.02318 0.137425,-0.024468 0.134949,-0.025756 0.131235,-0.027044 0.131234,-0.028332 0.127521,-0.028332 0.125044,-0.029619 0.122568,-0.030907 0.120092,-0.032195 0.116378,-0.032195 0.11514,-0.033483 0.111426,-0.034771 0.107711,-0.034771 0.106474,-0.036058 0.101521,-0.037346 0.09905,-0.036058 0.09657,-0.038634 0.09286,-0.037346 0.08914,-0.038634 0.08543,-0.038634 0.08171,-0.038634 0.078,-0.039922 0.07305,-0.038634 0.07057,-0.038634 0.06562,-0.038634 0.0619,-0.037346 0.05819,-0.037346 0.05324,-0.036059 0.04828,-0.036059 0.04457,-0.034771 0.03962,-0.032195 0.0359,-0.030907 0.03095,-0.028332 0.01486,-0.015454 -0.01486,-0.015454 -0.03095,-0.028332 -0.0359,-0.030907 -0.03962,-0.032195 -0.04457,-0.034771 -0.04828,-0.034771 -0.05324,-0.037346 -0.05819,-0.037346 -0.0619,-0.037346 -0.06562,-0.038634 -0.07057,-0.038634 -0.07305,-0.038634 -0.078,-0.039922 -0.08171,-0.038634 -0.08543,-0.038634 -0.08914,-0.038634 -0.09286,-0.037346 -0.09657,-0.037346 -0.09905,-0.037346 -0.101521,-0.037338 -0.106474,-0.034771 -0.107711,-0.036059 -0.111426,-0.033483 -0.11514,-0.034771 -0.116378,-0.032195 -0.120092,-0.032195 -0.122568,-0.030907 -0.125044,-0.029619 -0.127521,-0.028332 -0.131234,-0.028332 -0.131235,-0.027044 -0.134949,-0.025756 -0.137425,-0.024468 -0.138663,-0.02318 -0.141139,-0.021893 -0.143615,-0.020605 -0.144854,-0.019317 -0.146091,-0.018029 -0.148568,-0.018029 -0.151043,-0.015454 -0.152282,-0.014166 -0.15352,-0.012878 -0.154758,-0.01159 -0.157234,-0.00901 -0.157234,-0.00901 -0.15971,-0.00644 -0.160948,-0.00515 -0.1621863,-0.00515 -0.1621863,-0.00129 -0.1646623,-0.00129 z"
     style="fill:#000000;stroke-width:1.26268816"
     id="path4677"
     inkscape:connector-curvature="0" /></svg>