<?xml version="1.0" encoding="UTF-8" standalone="no"?>
<svg
   xmlns:dc="http://purl.org/dc/elements/1.1/"
   xmlns:cc="http://creativecommons.org/ns#"
   xmlns:rdf="http://www.w3.org/1999/02/22-rdf-syntax-ns#"
   xmlns:svg="http://www.w3.org/2000/svg"
   xmlns="http://www.w3.org/2000/svg"
   xmlns:sodipodi="http://sodipodi.sourceforge.net/DTD/sodipodi-0.dtd"
   xmlns:inkscape="http://www.inkscape.org/namespaces/inkscape"
   width="19px"
   height="19px"
   version="1.1"
   xml:space="preserve"
   style="fill-rule:evenodd;clip-rule:evenodd;"
   id="svg58"
   sodipodi:docname="device_analysis.svg"
   inkscape:version="0.92.2 (5c3e80d, 2017-08-06)"><metadata
     id="metadata64"><rdf:RDF><cc:Work
         rdf:about=""><dc:format>image/svg+xml</dc:format><dc:type
           rdf:resource="http://purl.org/dc/dcmitype/StillImage" /></cc:Work></rdf:RDF></metadata><defs
     id="defs62" /><sodipodi:namedview
     pagecolor="#ffffff"
     bordercolor="#666666"
     borderopacity="1"
     objecttolerance="10"
     gridtolerance="10"
     guidetolerance="10"
     inkscape:pageopacity="0"
     inkscape:pageshadow="2"
     inkscape:window-width="1210"
     inkscape:window-height="837"
     id="namedview60"
     showgrid="false"
     inkscape:zoom="35.132042"
     inkscape:cx="7.7510508"
     inkscape:cy="8.0328798"
     inkscape:window-x="365"
     inkscape:window-y="181"
     inkscape:window-maximized="0"
     inkscape:current-layer="svg58" /><path
     id="path9501"
     d="M14.245,9.834L12.567,8.179C12.848,7.744 13.001,7.238 13.001,6.709C13.001,5.977 12.712,5.289 12.187,4.77C11.661,4.252 10.963,3.968 10.22,3.968C9.477,3.968 8.779,4.253 8.254,4.771C7.729,5.289 7.44,5.977 7.44,6.709C7.44,7.442 7.729,8.13 8.254,8.648C8.779,9.166 9.478,9.451 10.22,9.451C10.757,9.451 11.269,9.3 11.711,9.023L13.389,10.677L14.245,9.834ZM8.853,8.058C8.487,7.698 8.286,7.219 8.286,6.709C8.286,6.2 8.487,5.721 8.853,5.361C9.218,5 9.704,4.802 10.22,4.802C10.736,4.802 11.222,5 11.588,5.361C11.953,5.721 12.155,6.2 12.155,6.709C12.155,7.219 11.954,7.698 11.589,8.058C11.222,8.419 10.737,8.616 10.22,8.616C9.704,8.616 9.218,8.419 8.853,8.058Z"
     style="fill:#000000;fill-rule:nonzero" /><path
     id="path9660"
     d="M4.338,13.192C4.338,11.635 6.115,11.635 6.115,11.635C6.115,11.635 7.893,11.635 7.893,13.192C7.893,14.748 9.671,14.748 9.671,14.748C9.671,14.748 11.448,14.748 11.448,13.192C11.448,11.635 13.226,11.635 13.226,11.635C13.226,11.635 15.004,11.635 15.004,13.192"
     style="fill:none;stroke:#000002;stroke-width:0.84px;stroke-opacity:1" /></svg>