<?xml version="1.0" encoding="UTF-8" standalone="no"?>
<!DOCTYPE svg PUBLIC "-//W3C//DTD SVG 1.1//EN" "http://www.w3.org/Graphics/SVG/1.1/DTD/svg11.dtd">
<svg width="19px" height="19px" version="1.1" xmlns="http://www.w3.org/2000/svg" xmlns:xlink="http://www.w3.org/1999/xlink" xml:space="preserve" style="fill-rule:evenodd;clip-rule:evenodd;stroke-linejoin:round;stroke-miterlimit:1.41421;">
    <path d="M17,4C17,2.896 16.104,2 15,2L4,2C2.896,2 2,2.896 2,4L2,15C2,16.104 2.896,17 4,17L15,17C16.104,17 17,16.104 17,15L17,4Z"/>
    <path d="M15.052,2.001L15.103,2.003L15.154,2.006L15.204,2.01L15.255,2.016L15.304,2.023L15.354,2.031L15.403,2.041L15.451,2.051L15.5,2.063L15.547,2.076L15.594,2.09L15.641,2.105L15.687,2.121L15.733,2.139L15.778,2.157L15.823,2.177L15.867,2.197L15.91,2.219L15.953,2.242L15.995,2.265L16.037,2.29L16.078,2.315L16.118,2.342L16.157,2.369L16.196,2.398L16.234,2.427L16.272,2.457L16.309,2.488L16.344,2.52L16.38,2.553L16.414,2.586L16.447,2.62L16.48,2.656L16.512,2.691L16.543,2.728L16.573,2.766L16.602,2.804L16.631,2.843L16.658,2.882L16.685,2.922L16.71,2.963L16.735,3.005L16.758,3.047L16.781,3.09L16.803,3.133L16.823,3.177L16.843,3.222L16.861,3.267L16.879,3.313L16.895,3.359L16.91,3.406L16.924,3.453L16.937,3.5L16.949,3.549L16.959,3.597L16.969,3.646L16.977,3.696L16.984,3.745L16.99,3.796L16.994,3.846L16.997,3.897L16.999,3.948L17,4L17,15L16.999,15.052L16.997,15.103L16.994,15.154L16.99,15.204L16.984,15.255L16.977,15.304L16.969,15.354L16.959,15.403L16.949,15.451L16.937,15.5L16.924,15.547L16.91,15.594L16.895,15.641L16.879,15.687L16.861,15.733L16.843,15.778L16.823,15.823L16.803,15.867L16.781,15.91L16.758,15.953L16.735,15.995L16.71,16.037L16.685,16.078L16.658,16.118L16.631,16.157L16.602,16.196L16.573,16.234L16.543,16.272L16.512,16.309L16.48,16.344L16.447,16.38L16.414,16.414L16.38,16.447L16.344,16.48L16.309,16.512L16.272,16.543L16.234,16.573L16.196,16.602L16.157,16.631L16.118,16.658L16.078,16.685L16.037,16.71L15.995,16.735L15.953,16.758L15.91,16.781L15.867,16.803L15.823,16.823L15.778,16.843L15.733,16.861L15.687,16.879L15.641,16.895L15.594,16.91L15.547,16.924L15.5,16.937L15.451,16.949L15.403,16.959L15.354,16.969L15.304,16.977L15.255,16.984L15.204,16.99L15.154,16.994L15.103,16.997L15.052,16.999L15,17L4,17L3.948,16.999L3.897,16.997L3.846,16.994L3.796,16.99L3.745,16.984L3.696,16.977L3.646,16.969L3.597,16.959L3.549,16.949L3.5,16.937L3.453,16.924L3.406,16.91L3.359,16.895L3.313,16.879L3.267,16.861L3.222,16.843L3.177,16.823L3.133,16.803L3.09,16.781L3.047,16.758L3.005,16.735L2.963,16.71L2.922,16.685L2.882,16.658L2.843,16.631L2.804,16.602L2.766,16.573L2.728,16.543L2.691,16.512L2.656,16.48L2.62,16.447L2.586,16.414L2.553,16.38L2.52,16.344L2.488,16.309L2.457,16.272L2.427,16.234L2.398,16.196L2.369,16.157L2.342,16.118L2.315,16.078L2.29,16.037L2.265,15.995L2.242,15.953L2.219,15.91L2.197,15.867L2.177,15.823L2.157,15.778L2.139,15.733L2.121,15.687L2.105,15.641L2.09,15.594L2.076,15.547L2.063,15.5L2.051,15.451L2.041,15.403L2.031,15.354L2.023,15.304L2.016,15.255L2.01,15.204L2.006,15.154L2.003,15.103L2.001,15.052L2,15L2,4L2.001,3.948L2.003,3.897L2.006,3.846L2.01,3.796L2.016,3.745L2.023,3.696L2.031,3.646L2.041,3.597L2.051,3.549L2.063,3.5L2.076,3.453L2.09,3.406L2.105,3.359L2.121,3.313L2.139,3.267L2.157,3.222L2.177,3.177L2.197,3.133L2.219,3.09L2.242,3.047L2.265,3.005L2.29,2.963L2.315,2.922L2.342,2.882L2.369,2.843L2.398,2.804L2.427,2.766L2.457,2.728L2.488,2.691L2.52,2.656L2.553,2.62L2.586,2.586L2.62,2.553L2.656,2.52L2.691,2.488L2.728,2.457L2.766,2.427L2.804,2.398L2.843,2.369L2.882,2.342L2.922,2.315L2.963,2.29L3.005,2.265L3.047,2.242L3.09,2.219L3.133,2.197L3.177,2.177L3.222,2.157L3.267,2.139L3.313,2.121L3.359,2.105L3.406,2.09L3.453,2.076L3.5,2.063L3.549,2.051L3.597,2.041L3.646,2.031L3.696,2.023L3.745,2.016L3.796,2.01L3.846,2.006L3.897,2.003L3.948,2.001L4,2L15,2L15.052,2.001ZM4.006,3L3.974,3L3.948,3.001L3.922,3.003L3.897,3.005L3.872,3.008L3.847,3.012L3.822,3.016L3.798,3.02L3.774,3.026L3.75,3.031L3.726,3.038L3.703,3.045L3.68,3.052L3.657,3.06L3.634,3.069L3.612,3.078L3.589,3.088L3.568,3.098L3.546,3.109L3.525,3.12L3.504,3.132L3.483,3.144L3.462,3.157L3.442,3.17L3.422,3.184L3.403,3.198L3.384,3.213L3.365,3.228L3.346,3.244L3.328,3.26L3.311,3.276L3.293,3.293L3.276,3.311L3.26,3.328L3.244,3.346L3.228,3.365L3.213,3.384L3.198,3.403L3.184,3.422L3.17,3.442L3.157,3.462L3.144,3.483L3.132,3.504L3.12,3.525L3.109,3.546L3.098,3.568L3.088,3.589L3.078,3.612L3.069,3.634L3.06,3.657L3.052,3.68L3.045,3.703L3.038,3.726L3.031,3.75L3.026,3.774L3.02,3.798L3.016,3.822L3.012,3.847L3.008,3.872L3.005,3.897L3.003,3.922L3.001,3.948L3,3.974L3,4.006L3,14.994L3,15.026L3.001,15.052L3.003,15.078L3.005,15.103L3.008,15.128L3.012,15.153L3.016,15.178L3.02,15.202L3.026,15.226L3.031,15.25L3.038,15.274L3.045,15.297L3.052,15.32L3.06,15.343L3.069,15.366L3.078,15.388L3.088,15.411L3.098,15.432L3.109,15.454L3.12,15.475L3.132,15.496L3.144,15.517L3.157,15.538L3.17,15.558L3.184,15.578L3.198,15.597L3.213,15.616L3.228,15.635L3.244,15.654L3.26,15.672L3.276,15.689L3.293,15.707L3.311,15.724L3.328,15.74L3.346,15.756L3.365,15.772L3.384,15.787L3.403,15.802L3.422,15.816L3.442,15.83L3.462,15.843L3.483,15.856L3.504,15.868L3.525,15.88L3.546,15.891L3.568,15.902L3.589,15.912L3.612,15.922L3.634,15.931L3.657,15.94L3.68,15.948L3.703,15.955L3.726,15.962L3.75,15.969L3.774,15.974L3.798,15.98L3.822,15.984L3.847,15.988L3.872,15.992L3.897,15.995L3.922,15.997L3.948,15.999L3.974,16L4.006,16L14.994,16L15.026,16L15.052,15.999L15.078,15.997L15.103,15.995L15.128,15.992L15.153,15.988L15.178,15.984L15.202,15.98L15.226,15.974L15.25,15.969L15.274,15.962L15.297,15.955L15.32,15.948L15.343,15.94L15.366,15.931L15.388,15.922L15.411,15.912L15.432,15.902L15.454,15.891L15.475,15.88L15.496,15.868L15.517,15.856L15.538,15.843L15.558,15.83L15.578,15.816L15.597,15.802L15.616,15.787L15.635,15.772L15.654,15.756L15.672,15.74L15.689,15.724L15.707,15.707L15.724,15.689L15.74,15.672L15.756,15.654L15.772,15.635L15.787,15.616L15.802,15.597L15.816,15.578L15.83,15.558L15.843,15.538L15.856,15.517L15.868,15.496L15.88,15.475L15.891,15.454L15.902,15.432L15.912,15.411L15.922,15.388L15.931,15.366L15.94,15.343L15.948,15.32L15.955,15.297L15.962,15.274L15.969,15.25L15.974,15.226L15.98,15.202L15.984,15.178L15.988,15.153L15.992,15.128L15.995,15.103L15.997,15.078L15.999,15.052L16,15.026L16,14.994L16,4.006L16,3.974L15.999,3.948L15.997,3.922L15.995,3.897L15.992,3.872L15.988,3.847L15.984,3.822L15.98,3.798L15.974,3.774L15.969,3.75L15.962,3.726L15.955,3.703L15.948,3.68L15.94,3.657L15.931,3.634L15.922,3.612L15.912,3.589L15.902,3.568L15.891,3.546L15.88,3.525L15.868,3.504L15.856,3.483L15.843,3.462L15.83,3.442L15.816,3.422L15.802,3.403L15.787,3.384L15.772,3.365L15.756,3.346L15.74,3.328L15.724,3.311L15.707,3.293L15.689,3.276L15.672,3.26L15.654,3.244L15.635,3.228L15.616,3.213L15.597,3.198L15.578,3.184L15.558,3.17L15.538,3.157L15.517,3.144L15.496,3.132L15.475,3.12L15.454,3.109L15.432,3.098L15.411,3.088L15.388,3.078L15.366,3.069L15.343,3.06L15.32,3.052L15.297,3.045L15.274,3.038L15.25,3.031L15.226,3.026L15.202,3.02L15.178,3.016L15.153,3.012L15.128,3.008L15.103,3.005L15.078,3.003L15.052,3.001L15.026,3L14.994,3L4.006,3Z" style="fill:rgb(39,219,144);"/>
    <path d="M17,4C17,2.896 16.104,2 15,2L4,2C2.896,2 2,2.896 2,4L2,15C2,16.104 2.896,17 4,17L15,17C16.104,17 17,16.104 17,15L17,4Z"/>
    <path d="M15.052,2.001L15.103,2.003L15.154,2.006L15.204,2.01L15.255,2.016L15.304,2.023L15.354,2.031L15.403,2.041L15.451,2.051L15.5,2.063L15.547,2.076L15.594,2.09L15.641,2.105L15.687,2.121L15.733,2.139L15.778,2.157L15.823,2.177L15.867,2.197L15.91,2.219L15.953,2.242L15.995,2.265L16.037,2.29L16.078,2.315L16.118,2.342L16.157,2.369L16.196,2.398L16.234,2.427L16.272,2.457L16.309,2.488L16.344,2.52L16.38,2.553L16.414,2.586L16.447,2.62L16.48,2.656L16.512,2.691L16.543,2.728L16.573,2.766L16.602,2.804L16.631,2.843L16.658,2.882L16.685,2.922L16.71,2.963L16.735,3.005L16.758,3.047L16.781,3.09L16.803,3.133L16.823,3.177L16.843,3.222L16.861,3.267L16.879,3.313L16.895,3.359L16.91,3.406L16.924,3.453L16.937,3.5L16.949,3.549L16.959,3.597L16.969,3.646L16.977,3.696L16.984,3.745L16.99,3.796L16.994,3.846L16.997,3.897L16.999,3.948L17,4L17,15L16.999,15.052L16.997,15.103L16.994,15.154L16.99,15.204L16.984,15.255L16.977,15.304L16.969,15.354L16.959,15.403L16.949,15.451L16.937,15.5L16.924,15.547L16.91,15.594L16.895,15.641L16.879,15.687L16.861,15.733L16.843,15.778L16.823,15.823L16.803,15.867L16.781,15.91L16.758,15.953L16.735,15.995L16.71,16.037L16.685,16.078L16.658,16.118L16.631,16.157L16.602,16.196L16.573,16.234L16.543,16.272L16.512,16.309L16.48,16.344L16.447,16.38L16.414,16.414L16.38,16.447L16.344,16.48L16.309,16.512L16.272,16.543L16.234,16.573L16.196,16.602L16.157,16.631L16.118,16.658L16.078,16.685L16.037,16.71L15.995,16.735L15.953,16.758L15.91,16.781L15.867,16.803L15.823,16.823L15.778,16.843L15.733,16.861L15.687,16.879L15.641,16.895L15.594,16.91L15.547,16.924L15.5,16.937L15.451,16.949L15.403,16.959L15.354,16.969L15.304,16.977L15.255,16.984L15.204,16.99L15.154,16.994L15.103,16.997L15.052,16.999L15,17L4,17L3.948,16.999L3.897,16.997L3.846,16.994L3.796,16.99L3.745,16.984L3.696,16.977L3.646,16.969L3.597,16.959L3.549,16.949L3.5,16.937L3.453,16.924L3.406,16.91L3.359,16.895L3.313,16.879L3.267,16.861L3.222,16.843L3.177,16.823L3.133,16.803L3.09,16.781L3.047,16.758L3.005,16.735L2.963,16.71L2.922,16.685L2.882,16.658L2.843,16.631L2.804,16.602L2.766,16.573L2.728,16.543L2.691,16.512L2.656,16.48L2.62,16.447L2.586,16.414L2.553,16.38L2.52,16.344L2.488,16.309L2.457,16.272L2.427,16.234L2.398,16.196L2.369,16.157L2.342,16.118L2.315,16.078L2.29,16.037L2.265,15.995L2.242,15.953L2.219,15.91L2.197,15.867L2.177,15.823L2.157,15.778L2.139,15.733L2.121,15.687L2.105,15.641L2.09,15.594L2.076,15.547L2.063,15.5L2.051,15.451L2.041,15.403L2.031,15.354L2.023,15.304L2.016,15.255L2.01,15.204L2.006,15.154L2.003,15.103L2.001,15.052L2,15L2,4L2.001,3.948L2.003,3.897L2.006,3.846L2.01,3.796L2.016,3.745L2.023,3.696L2.031,3.646L2.041,3.597L2.051,3.549L2.063,3.5L2.076,3.453L2.09,3.406L2.105,3.359L2.121,3.313L2.139,3.267L2.157,3.222L2.177,3.177L2.197,3.133L2.219,3.09L2.242,3.047L2.265,3.005L2.29,2.963L2.315,2.922L2.342,2.882L2.369,2.843L2.398,2.804L2.427,2.766L2.457,2.728L2.488,2.691L2.52,2.656L2.553,2.62L2.586,2.586L2.62,2.553L2.656,2.52L2.691,2.488L2.728,2.457L2.766,2.427L2.804,2.398L2.843,2.369L2.882,2.342L2.922,2.315L2.963,2.29L3.005,2.265L3.047,2.242L3.09,2.219L3.133,2.197L3.177,2.177L3.222,2.157L3.267,2.139L3.313,2.121L3.359,2.105L3.406,2.09L3.453,2.076L3.5,2.063L3.549,2.051L3.597,2.041L3.646,2.031L3.696,2.023L3.745,2.016L3.796,2.01L3.846,2.006L3.897,2.003L3.948,2.001L4,2L15,2L15.052,2.001ZM4.006,3L3.974,3L3.948,3.001L3.922,3.003L3.897,3.005L3.872,3.008L3.847,3.012L3.822,3.016L3.798,3.02L3.774,3.026L3.75,3.031L3.726,3.038L3.703,3.045L3.68,3.052L3.657,3.06L3.634,3.069L3.612,3.078L3.589,3.088L3.568,3.098L3.546,3.109L3.525,3.12L3.504,3.132L3.483,3.144L3.462,3.157L3.442,3.17L3.422,3.184L3.403,3.198L3.384,3.213L3.365,3.228L3.346,3.244L3.328,3.26L3.311,3.276L3.293,3.293L3.276,3.311L3.26,3.328L3.244,3.346L3.228,3.365L3.213,3.384L3.198,3.403L3.184,3.422L3.17,3.442L3.157,3.462L3.144,3.483L3.132,3.504L3.12,3.525L3.109,3.546L3.098,3.568L3.088,3.589L3.078,3.612L3.069,3.634L3.06,3.657L3.052,3.68L3.045,3.703L3.038,3.726L3.031,3.75L3.026,3.774L3.02,3.798L3.016,3.822L3.012,3.847L3.008,3.872L3.005,3.897L3.003,3.922L3.001,3.948L3,3.974L3,4.006L3,14.994L3,15.026L3.001,15.052L3.003,15.078L3.005,15.103L3.008,15.128L3.012,15.153L3.016,15.178L3.02,15.202L3.026,15.226L3.031,15.25L3.038,15.274L3.045,15.297L3.052,15.32L3.06,15.343L3.069,15.366L3.078,15.388L3.088,15.411L3.098,15.432L3.109,15.454L3.12,15.475L3.132,15.496L3.144,15.517L3.157,15.538L3.17,15.558L3.184,15.578L3.198,15.597L3.213,15.616L3.228,15.635L3.244,15.654L3.26,15.672L3.276,15.689L3.293,15.707L3.311,15.724L3.328,15.74L3.346,15.756L3.365,15.772L3.384,15.787L3.403,15.802L3.422,15.816L3.442,15.83L3.462,15.843L3.483,15.856L3.504,15.868L3.525,15.88L3.546,15.891L3.568,15.902L3.589,15.912L3.612,15.922L3.634,15.931L3.657,15.94L3.68,15.948L3.703,15.955L3.726,15.962L3.75,15.969L3.774,15.974L3.798,15.98L3.822,15.984L3.847,15.988L3.872,15.992L3.897,15.995L3.922,15.997L3.948,15.999L3.974,16L4.006,16L14.994,16L15.026,16L15.052,15.999L15.078,15.997L15.103,15.995L15.128,15.992L15.153,15.988L15.178,15.984L15.202,15.98L15.226,15.974L15.25,15.969L15.274,15.962L15.297,15.955L15.32,15.948L15.343,15.94L15.366,15.931L15.388,15.922L15.411,15.912L15.432,15.902L15.454,15.891L15.475,15.88L15.496,15.868L15.517,15.856L15.538,15.843L15.558,15.83L15.578,15.816L15.597,15.802L15.616,15.787L15.635,15.772L15.654,15.756L15.672,15.74L15.689,15.724L15.707,15.707L15.724,15.689L15.74,15.672L15.756,15.654L15.772,15.635L15.787,15.616L15.802,15.597L15.816,15.578L15.83,15.558L15.843,15.538L15.856,15.517L15.868,15.496L15.88,15.475L15.891,15.454L15.902,15.432L15.912,15.411L15.922,15.388L15.931,15.366L15.94,15.343L15.948,15.32L15.955,15.297L15.962,15.274L15.969,15.25L15.974,15.226L15.98,15.202L15.984,15.178L15.988,15.153L15.992,15.128L15.995,15.103L15.997,15.078L15.999,15.052L16,15.026L16,14.994L16,4.006L16,3.974L15.999,3.948L15.997,3.922L15.995,3.897L15.992,3.872L15.988,3.847L15.984,3.822L15.98,3.798L15.974,3.774L15.969,3.75L15.962,3.726L15.955,3.703L15.948,3.68L15.94,3.657L15.931,3.634L15.922,3.612L15.912,3.589L15.902,3.568L15.891,3.546L15.88,3.525L15.868,3.504L15.856,3.483L15.843,3.462L15.83,3.442L15.816,3.422L15.802,3.403L15.787,3.384L15.772,3.365L15.756,3.346L15.74,3.328L15.724,3.311L15.707,3.293L15.689,3.276L15.672,3.26L15.654,3.244L15.635,3.228L15.616,3.213L15.597,3.198L15.578,3.184L15.558,3.17L15.538,3.157L15.517,3.144L15.496,3.132L15.475,3.12L15.454,3.109L15.432,3.098L15.411,3.088L15.388,3.078L15.366,3.069L15.343,3.06L15.32,3.052L15.297,3.045L15.274,3.038L15.25,3.031L15.226,3.026L15.202,3.02L15.178,3.016L15.153,3.012L15.128,3.008L15.103,3.005L15.078,3.003L15.052,3.001L15.026,3L14.994,3L4.006,3Z" style="fill:rgb(39,219,144);"/>
    <path id="path3109.-1" d="M15,11.923L15,11.95L14.998,11.977L14.996,12.003L14.993,12.03L14.989,12.056L14.984,12.083L14.978,12.109L14.972,12.135L14.964,12.162L14.956,12.188L14.947,12.214L14.937,12.239L14.926,12.265L14.914,12.291L14.902,12.316L14.888,12.342L14.874,12.367L14.859,12.392L14.827,12.442L14.791,12.492L14.753,12.541L14.711,12.589L14.666,12.637L14.619,12.685L14.568,12.732L14.514,12.778L14.458,12.824L14.398,12.869L14.336,12.913L14.271,12.957L14.204,13L14.134,13.043L14.061,13.084L13.985,13.125L13.907,13.166L13.827,13.205L13.744,13.244L13.659,13.282L13.571,13.32L13.481,13.356L13.389,13.392L13.295,13.426L13.198,13.46L13.099,13.494L12.999,13.526L12.896,13.557L12.791,13.587L12.684,13.617L12.575,13.645L12.464,13.673L12.352,13.699L12.238,13.725L12.122,13.749L12.004,13.773L11.884,13.795L11.763,13.817L11.641,13.837L11.517,13.856L11.391,13.874L11.264,13.891L11.136,13.907L11.006,13.921L10.875,13.935L10.742,13.947L10.608,13.958L10.474,13.968L10.338,13.976L10.2,13.983L10.062,13.989L9.923,13.994L9.783,13.997L9.642,13.999L9.5,14L9.358,13.999L9.217,13.997L9.077,13.994L8.938,13.989L8.8,13.983L8.662,13.976L8.526,13.968L8.392,13.958L8.258,13.947L8.125,13.935L7.994,13.921L7.864,13.907L7.736,13.891L7.609,13.874L7.483,13.856L7.359,13.837L7.237,13.817L7.116,13.795L6.996,13.773L6.878,13.749L6.762,13.725L6.648,13.699L6.536,13.673L6.425,13.645L6.316,13.617L6.209,13.587L6.104,13.557L6.001,13.526L5.901,13.494L5.802,13.46L5.705,13.426L5.611,13.392L5.519,13.356L5.429,13.32L5.341,13.282L5.256,13.244L5.173,13.205L5.093,13.166L5.015,13.125L4.939,13.084L4.866,13.043L4.796,13L4.729,12.957L4.664,12.913L4.602,12.869L4.542,12.824L4.486,12.778L4.432,12.732L4.381,12.685L4.334,12.637L4.289,12.589L4.247,12.541L4.209,12.492L4.173,12.442L4.141,12.392L4.126,12.367L4.112,12.342L4.098,12.316L4.086,12.291L4.074,12.265L4.063,12.239L4.053,12.214L4.044,12.188L4.036,12.162L4.028,12.135L4.022,12.109L4.016,12.083L4.011,12.056L4.007,12.03L4.004,12.003L4.002,11.977L4,11.95L4,11.923L4,7.077L15,7.077L15,11.923ZM5,8.077L5,11.879L5.008,11.891L5.02,11.905L5.034,11.922L5.052,11.941L5.073,11.963L5.098,11.986L5.127,12.01L5.159,12.036L5.195,12.064L5.235,12.092L5.278,12.121L5.324,12.151L5.374,12.181L5.427,12.211L5.484,12.242L5.544,12.273L5.606,12.304L5.672,12.335L5.741,12.366L5.813,12.396L5.887,12.426L5.964,12.456L6.044,12.486L6.127,12.515L6.212,12.543L6.299,12.571L6.389,12.598L6.481,12.625L6.576,12.651L6.672,12.676L6.771,12.701L6.872,12.725L6.975,12.748L7.079,12.77L7.186,12.791L7.295,12.811L7.405,12.831L7.517,12.849L7.631,12.867L7.746,12.883L7.863,12.899L7.981,12.913L8.101,12.927L8.222,12.939L8.345,12.951L8.469,12.961L8.594,12.97L8.72,12.978L8.847,12.984L8.976,12.99L9.106,12.994L9.236,12.997L9.368,12.999L9.5,13L9.632,12.999L9.764,12.997L9.894,12.994L10.024,12.99L10.153,12.984L10.28,12.978L10.406,12.97L10.531,12.961L10.655,12.951L10.778,12.939L10.899,12.927L11.019,12.913L11.137,12.899L11.254,12.883L11.369,12.867L11.483,12.849L11.595,12.831L11.705,12.811L11.814,12.791L11.921,12.77L12.025,12.748L12.128,12.725L12.229,12.701L12.328,12.676L12.424,12.651L12.519,12.625L12.611,12.598L12.701,12.571L12.788,12.543L12.873,12.515L12.956,12.486L13.036,12.456L13.113,12.426L13.187,12.396L13.259,12.366L13.328,12.335L13.394,12.304L13.456,12.273L13.516,12.242L13.573,12.211L13.626,12.181L13.676,12.151L13.722,12.121L13.765,12.092L13.805,12.064L13.841,12.036L13.873,12.01L13.902,11.986L13.927,11.962L13.948,11.941L13.966,11.922L13.98,11.905L13.992,11.891L14,11.879L14,8.077L5,8.077Z" style="fill:rgb(39,219,144);"/>
    <path id="path3109" d="M15,7.025C15,8.143 12.538,9.05 9.5,9.05C6.462,9.05 4,8.143 4,7.025C4,5.907 6.462,5 9.5,5C12.538,5 15,5.907 15,7.025Z" style="fill:rgb(4,26,17);fill-rule:nonzero;"/>
    <path d="M9.642,5.001L9.783,5.003L9.923,5.006L10.062,5.01L10.2,5.016L10.338,5.023L10.474,5.032L10.608,5.041L10.742,5.052L10.875,5.064L11.006,5.077L11.136,5.091L11.264,5.106L11.391,5.123L11.517,5.14L11.641,5.159L11.763,5.179L11.884,5.2L12.004,5.222L12.122,5.244L12.238,5.268L12.352,5.293L12.464,5.319L12.575,5.346L12.684,5.374L12.791,5.402L12.896,5.432L12.999,5.462L13.099,5.494L13.198,5.526L13.295,5.559L13.389,5.593L13.481,5.628L13.571,5.663L13.659,5.7L13.744,5.737L13.827,5.775L13.907,5.813L13.985,5.853L14.061,5.893L14.134,5.934L14.204,5.975L14.271,6.017L14.336,6.06L14.398,6.103L14.458,6.147L14.514,6.192L14.568,6.237L14.619,6.283L14.666,6.329L14.711,6.376L14.753,6.423L14.791,6.471L14.827,6.519L14.859,6.568L14.874,6.592L14.888,6.617L14.902,6.642L14.914,6.667L14.926,6.692L14.937,6.717L14.947,6.742L14.956,6.767L14.964,6.793L14.972,6.818L14.978,6.844L14.984,6.869L14.989,6.895L14.993,6.921L14.996,6.947L14.998,6.973L15,6.999L15,7.025L15,7.051L14.998,7.077L14.996,7.103L14.993,7.129L14.989,7.155L14.984,7.181L14.978,7.207L14.972,7.232L14.964,7.258L14.956,7.283L14.947,7.308L14.937,7.333L14.926,7.359L14.914,7.383L14.902,7.408L14.888,7.433L14.874,7.458L14.859,7.482L14.827,7.531L14.791,7.579L14.753,7.627L14.711,7.675L14.666,7.721L14.619,7.768L14.568,7.813L14.514,7.858L14.458,7.903L14.398,7.947L14.336,7.99L14.271,8.033L14.204,8.075L14.134,8.117L14.061,8.157L13.985,8.197L13.907,8.237L13.827,8.275L13.744,8.313L13.659,8.35L13.571,8.387L13.481,8.422L13.389,8.457L13.295,8.491L13.198,8.524L13.099,8.556L12.999,8.588L12.896,8.618L12.791,8.648L12.684,8.676L12.575,8.704L12.464,8.731L12.352,8.757L12.238,8.782L12.122,8.806L12.004,8.829L11.884,8.85L11.763,8.871L11.641,8.891L11.517,8.91L11.391,8.927L11.264,8.944L11.136,8.959L11.006,8.973L10.875,8.986L10.742,8.998L10.608,9.009L10.474,9.018L10.338,9.027L10.2,9.034L10.062,9.04L9.923,9.044L9.783,9.047L9.642,9.049L9.5,9.05L9.358,9.049L9.217,9.047L9.077,9.044L8.938,9.04L8.8,9.034L8.662,9.027L8.526,9.018L8.392,9.009L8.258,8.998L8.125,8.986L7.994,8.973L7.864,8.959L7.736,8.944L7.609,8.927L7.483,8.91L7.359,8.891L7.237,8.871L7.116,8.85L6.996,8.829L6.878,8.806L6.762,8.782L6.648,8.757L6.536,8.731L6.425,8.704L6.316,8.676L6.209,8.648L6.104,8.618L6.001,8.588L5.901,8.556L5.802,8.524L5.705,8.491L5.611,8.457L5.519,8.422L5.429,8.387L5.341,8.35L5.256,8.313L5.173,8.275L5.093,8.237L5.015,8.197L4.939,8.157L4.866,8.117L4.796,8.075L4.729,8.033L4.664,7.99L4.602,7.947L4.542,7.903L4.486,7.858L4.432,7.813L4.381,7.768L4.334,7.721L4.289,7.675L4.247,7.627L4.209,7.579L4.173,7.531L4.141,7.482L4.126,7.458L4.112,7.433L4.098,7.408L4.086,7.383L4.074,7.359L4.063,7.333L4.053,7.308L4.044,7.283L4.036,7.258L4.028,7.232L4.022,7.207L4.016,7.181L4.011,7.155L4.007,7.129L4.004,7.103L4.002,7.077L4,7.051L4,7.025L4,6.999L4.002,6.973L4.004,6.947L4.007,6.921L4.011,6.895L4.016,6.869L4.022,6.844L4.028,6.818L4.036,6.793L4.044,6.767L4.053,6.742L4.063,6.717L4.074,6.692L4.086,6.667L4.098,6.642L4.112,6.617L4.126,6.592L4.141,6.568L4.173,6.519L4.209,6.471L4.247,6.423L4.289,6.376L4.334,6.329L4.381,6.283L4.432,6.237L4.486,6.192L4.542,6.147L4.602,6.103L4.664,6.06L4.729,6.017L4.796,5.975L4.866,5.934L4.939,5.893L5.015,5.853L5.093,5.813L5.173,5.775L5.256,5.737L5.341,5.7L5.429,5.663L5.519,5.628L5.611,5.593L5.705,5.559L5.802,5.526L5.901,5.494L6.001,5.462L6.104,5.432L6.209,5.402L6.316,5.374L6.425,5.346L6.536,5.319L6.648,5.293L6.762,5.268L6.878,5.244L6.996,5.222L7.116,5.2L7.237,5.179L7.359,5.159L7.483,5.14L7.609,5.123L7.736,5.106L7.864,5.091L7.994,5.077L8.125,5.064L8.258,5.052L8.392,5.041L8.526,5.032L8.662,5.023L8.8,5.016L8.938,5.01L9.077,5.006L9.217,5.003L9.358,5.001L9.5,5L9.642,5.001ZM9.367,6.001L9.236,6.002L9.105,6.006L8.975,6.01L8.846,6.015L8.719,6.022L8.592,6.029L8.467,6.038L8.343,6.048L8.22,6.059L8.098,6.071L7.978,6.085L7.86,6.099L7.743,6.114L7.627,6.13L7.513,6.147L7.401,6.165L7.29,6.184L7.181,6.204L7.075,6.225L6.97,6.247L6.866,6.269L6.765,6.292L6.666,6.316L6.569,6.341L6.475,6.366L6.382,6.393L6.292,6.419L6.205,6.447L6.119,6.474L6.037,6.503L5.957,6.532L5.879,6.561L5.804,6.59L5.732,6.62L5.663,6.65L5.597,6.68L5.534,6.711L5.475,6.741L5.418,6.771L5.365,6.801L5.315,6.83L5.268,6.859L5.225,6.888L5.186,6.915L5.15,6.942L5.118,6.967L5.089,6.991L5.064,7.013L5.052,7.025L5.064,7.037L5.089,7.059L5.118,7.083L5.15,7.108L5.186,7.135L5.225,7.163L5.268,7.191L5.315,7.22L5.365,7.249L5.418,7.279L5.475,7.309L5.534,7.339L5.597,7.37L5.663,7.4L5.733,7.43L5.804,7.46L5.879,7.489L5.957,7.519L6.037,7.547L6.119,7.576L6.205,7.604L6.292,7.631L6.382,7.658L6.475,7.684L6.569,7.709L6.666,7.734L6.765,7.758L6.866,7.781L6.97,7.803L7.075,7.825L7.181,7.846L7.29,7.866L7.401,7.885L7.513,7.903L7.627,7.92L7.743,7.936L7.86,7.951L7.978,7.966L8.098,7.979L8.22,7.991L8.343,8.002L8.467,8.012L8.592,8.021L8.719,8.028L8.846,8.035L8.975,8.04L9.105,8.045L9.236,8.048L9.367,8.049L9.5,8.05L9.633,8.049L9.764,8.048L9.895,8.045L10.025,8.04L10.154,8.035L10.281,8.028L10.408,8.021L10.533,8.012L10.657,8.002L10.78,7.991L10.902,7.979L11.022,7.966L11.14,7.951L11.257,7.936L11.373,7.92L11.487,7.903L11.599,7.885L11.71,7.866L11.819,7.846L11.925,7.825L12.031,7.803L12.134,7.781L12.235,7.758L12.334,7.734L12.431,7.709L12.525,7.684L12.618,7.658L12.708,7.631L12.795,7.604L12.881,7.576L12.963,7.547L13.043,7.519L13.121,7.489L13.196,7.46L13.268,7.43L13.337,7.4L13.403,7.37L13.466,7.339L13.525,7.309L13.582,7.279L13.635,7.249L13.685,7.22L13.732,7.191L13.775,7.163L13.814,7.135L13.85,7.108L13.882,7.083L13.911,7.059L13.936,7.037L13.948,7.025L13.936,7.013L13.911,6.991L13.882,6.967L13.85,6.942L13.814,6.915L13.775,6.888L13.732,6.859L13.685,6.83L13.635,6.801L13.582,6.771L13.525,6.741L13.466,6.711L13.403,6.68L13.337,6.65L13.268,6.62L13.196,6.59L13.121,6.561L13.043,6.532L12.963,6.503L12.881,6.474L12.795,6.447L12.708,6.419L12.618,6.393L12.525,6.366L12.431,6.341L12.334,6.316L12.235,6.292L12.134,6.269L12.031,6.247L11.925,6.225L11.819,6.204L11.71,6.184L11.599,6.165L11.487,6.147L11.373,6.13L11.257,6.114L11.14,6.099L11.022,6.085L10.902,6.071L10.78,6.059L10.657,6.048L10.533,6.038L10.408,6.029L10.281,6.022L10.154,6.015L10.025,6.01L9.895,6.006L9.764,6.002L9.633,6.001L9.5,6L9.367,6.001Z" style="fill:rgb(39,219,144);"/>
</svg>
