<?xml version="1.0" encoding="UTF-8" standalone="no"?>
<svg
   xmlns:dc="http://purl.org/dc/elements/1.1/"
   xmlns:cc="http://creativecommons.org/ns#"
   xmlns:rdf="http://www.w3.org/1999/02/22-rdf-syntax-ns#"
   xmlns:svg="http://www.w3.org/2000/svg"
   xmlns="http://www.w3.org/2000/svg"
   xmlns:sodipodi="http://sodipodi.sourceforge.net/DTD/sodipodi-0.dtd"
   xmlns:inkscape="http://www.inkscape.org/namespaces/inkscape"
   width="19px"
   height="19px"
   version="1.1"
   xml:space="preserve"
   style="fill-rule:evenodd;clip-rule:evenodd;stroke-linejoin:round;stroke-miterlimit:1.41421;"
   id="svg4639"
   sodipodi:docname="device_drum_machine.svg"
   inkscape:version="0.92.2 (5c3e80d, 2017-08-06)"><metadata
     id="metadata4645"><rdf:RDF><cc:Work
         rdf:about=""><dc:format>image/svg+xml</dc:format><dc:type
           rdf:resource="http://purl.org/dc/dcmitype/StillImage" /></cc:Work></rdf:RDF></metadata><defs
     id="defs4643" /><sodipodi:namedview
     pagecolor="#ffffff"
     bordercolor="#666666"
     borderopacity="1"
     objecttolerance="10"
     gridtolerance="10"
     guidetolerance="10"
     inkscape:pageopacity="0"
     inkscape:pageshadow="2"
     inkscape:window-width="1858"
     inkscape:window-height="1177"
     id="namedview4641"
     showgrid="false"
     inkscape:zoom="35.132042"
     inkscape:cx="5.5335447"
     inkscape:cy="8.9362897"
     inkscape:window-x="54"
     inkscape:window-y="-8"
     inkscape:window-maximized="1"
     inkscape:current-layer="svg4639" /><path
     id="rect3076"
     d="m 3.5161112,3.5161113 v 2.1397325 h 2.201836 V 3.5161113 Z m 3.3027539,0 V 5.6558438 H 9.020701 V 3.5161113 Z m 3.3027539,0 v 2.1397325 h 2.201836 V 3.5161113 Z m 3.302753,0 v 2.1397325 h 2.201837 V 3.5161113 Z M 3.5161112,6.7257102 v 2.1397325 h 2.201836 V 6.7257102 Z m 3.3027539,0 V 8.8654427 H 9.020701 V 6.7257102 Z m 3.3027539,0 v 2.1397325 h 2.201836 V 6.7257102 Z m 3.302753,0 v 2.1397325 h 2.201837 V 6.7257102 Z M 3.5161112,9.9353096 v 2.1397324 h 2.201836 V 9.9353096 Z m 3.3027539,0 V 12.075042 H 9.020701 V 9.9353096 Z m 3.3027539,0 v 2.1397324 h 2.201836 V 9.9353096 Z m 3.302753,0 v 2.1397324 h 2.201837 V 9.9353096 Z M 3.5161112,13.144908 v 2.139733 h 2.201836 v -2.139733 z m 3.3027539,0 v 2.139733 H 9.020701 v -2.139733 z m 3.3027539,0 v 2.139733 h 2.201836 v -2.139733 z m 3.302753,0 v 2.139733 h 2.201837 v -2.139733 z"
     style="fill:#000000;fill-rule:nonzero;stroke-width:1.08528113"
     inkscape:connector-curvature="0" /></svg>