<?xml version="1.0" encoding="utf-8"?>
<!-- Generator: Adobe Illustrator 15.0.2, SVG Export Plug-In . SVG Version: 6.00 Build 0)  -->
<!DOCTYPE svg PUBLIC "-//W3C//DTD SVG 1.1//EN" "http://www.w3.org/Graphics/SVG/1.1/DTD/svg11.dtd">
<svg version="1.1" id="Layer_1" xmlns="http://www.w3.org/2000/svg" xmlns:xlink="http://www.w3.org/1999/xlink" x="0px" y="0px"
	 width="15px" height="15px" viewBox="0 0 15 15" enable-background="new 0 0 15 15" xml:space="preserve">
<g>
	<polygon points="6,5 6,7.34 4.782,3 4,3 4,7.658 2.791,2 2,2 2,13 2.8,13 2.8,5.842 4,12 4.8,12 4.8,6.16 6.018,10 6.8,10 
		6.8,6.694 7,7.066 7,5.449 6.758,5 	"/>
	<polygon points="12,2 12,8 11,8 11,13 13,13 13,8 13,2 	"/>
	<polygon points="9,2 8,2 8,13 10,13 10,8 9,8 	"/>
</g>
</svg>
